HIERARCHY
ROOT Hips
{
	OFFSET 0.000000 0.000000 0.000000
	CHANNELS 6 Xposition Yposition Zposition Xrotation Yrotation Zrotation
	JOINT LeftUpLeg_virtual
	{
		OFFSET 0.000000 0.000000 0.000000
		CHANNELS 3 Xrotation Yrotation Zrotation
		JOINT LeftUpLeg
		{
			OFFSET 13.026900 -6.336304 -1.092800
			CHANNELS 3 Xrotation Yrotation Zrotation
			JOINT LeftLeg
			{
				OFFSET 0.524474 -46.096886 9.782700
				CHANNELS 3 Xrotation Yrotation Zrotation
				JOINT LeftFoot
				{
					OFFSET -0.524474 -53.427422 -12.948200
					CHANNELS 3 Xrotation Yrotation Zrotation
					JOINT LeftToeBase
					{
						OFFSET 0.192200 -14.009700 16.364100
						CHANNELS 3 Xrotation Yrotation Zrotation
						JOINT LeftToe_End
						{
							OFFSET -1.784700 -0.561700 9.474800
							CHANNELS 3 Xrotation Yrotation Zrotation
							End Site
							{
								OFFSET 0 0 0
							}
						}
					}
				}
			}
		}
	}
	JOINT RightUpLeg_virtual
	{
		OFFSET 0.000000 0.000000 0.000000
		CHANNELS 3 Xrotation Yrotation Zrotation
		JOINT RightUpLeg
		{
			OFFSET -12.883000 -6.336304 -1.092800
			CHANNELS 3 Xrotation Yrotation Zrotation
			JOINT RightLeg
			{
				OFFSET -0.524587 -46.096825 9.782800
				CHANNELS 3 Xrotation Yrotation Zrotation
				JOINT RightFoot
				{
					OFFSET 0.524587 -53.427383 -12.948300
					CHANNELS 3 Xrotation Yrotation Zrotation
					JOINT RightToeBase
					{
						OFFSET -0.192200 -14.009700 16.364100
						CHANNELS 3 Xrotation Yrotation Zrotation
						JOINT RightToe_End
						{
							OFFSET 1.784700 -0.561700 9.474800
							CHANNELS 3 Xrotation Yrotation Zrotation
							End Site
							{
								OFFSET 0 0 0
							}
						}
					}
				}
			}
		}
	}
	JOINT Spine_virtual
	{
		OFFSET 0.000000 0.000000 0.000000
		CHANNELS 3 Xrotation Yrotation Zrotation
		JOINT Spine
		{
			OFFSET 0.072000 7.257294 -0.789700
			CHANNELS 3 Xrotation Yrotation Zrotation
			JOINT Spine1
			{
				OFFSET 0.000000 12.508769 -0.658067
				CHANNELS 3 Xrotation Yrotation Zrotation
				JOINT Spine1_split
				{
					OFFSET 0.000000 12.508769 -0.658067
					CHANNELS 3 Xrotation Yrotation Zrotation
					JOINT Spine2
					{
						OFFSET 0.000000 12.508769 -0.658067
						CHANNELS 3 Xrotation Yrotation Zrotation
						JOINT Neck_virtual
						{
							OFFSET 0.000000 0.000000 0.000000
							CHANNELS 3 Xrotation Yrotation Zrotation
							JOINT Neck
							{
								OFFSET 0.000000 14.033295 7.520400
								CHANNELS 3 Xrotation Yrotation Zrotation
								JOINT Head
								{
									OFFSET 0.000000 8.198502 5.703100
									CHANNELS 3 Xrotation Yrotation Zrotation
									JOINT HeadTop_End
									{
										OFFSET 0.000000 17.760803 13.332701
										CHANNELS 3 Xrotation Yrotation Zrotation
										End Site
										{
											OFFSET 0 0 0
										}
									}
								}
							}
						}
						JOINT LeftShoulder_virtual
						{
							OFFSET 0.000000 0.000000 0.000000
							CHANNELS 3 Xrotation Yrotation Zrotation
							JOINT LeftShoulder
							{
								OFFSET 6.292450 5.785301 -0.669000
								CHANNELS 3 Xrotation Yrotation Zrotation
								JOINT LeftShoulder_split
								{
									OFFSET 6.292450 5.785301 -0.669000
									CHANNELS 3 Xrotation Yrotation Zrotation
									JOINT LeftArm
									{
										OFFSET 13.907140 -6.093903 1.965100
										CHANNELS 3 Xrotation Yrotation Zrotation
										JOINT LeftForeArm
										{
											OFFSET 34.140198 0.000000 0.000000
											CHANNELS 3 Xrotation Yrotation Zrotation
											JOINT LeftHand
											{
												OFFSET 40.960209 0.000000 0.000000
												CHANNELS 3 Xrotation Yrotation Zrotation
												End Site
												{
													OFFSET 0 0 0
												}
											}
										}
									}
								}
							}
						}
						JOINT RightShoulder_virtual
						{
							OFFSET 0.000000 0.000000 0.000000
							CHANNELS 3 Xrotation Yrotation Zrotation
							JOINT RightShoulder
							{
								OFFSET -6.292450 5.785301 -0.669000
								CHANNELS 3 Xrotation Yrotation Zrotation
								JOINT RightShoulder_split
								{
									OFFSET -6.292450 5.785301 -0.669000
									CHANNELS 3 Xrotation Yrotation Zrotation
									JOINT RightArm
									{
										OFFSET -13.907140 -6.093903 1.965100
										CHANNELS 3 Xrotation Yrotation Zrotation
										JOINT RightForeArm
										{
											OFFSET -34.140198 0.000000 0.000000
											CHANNELS 3 Xrotation Yrotation Zrotation
											JOINT RightHand
											{
												OFFSET -40.960209 0.000000 0.000000
												CHANNELS 3 Xrotation Yrotation Zrotation
												End Site
												{
													OFFSET 0 0 0
												}
											}
										}
									}
								}
							}
						}
					}
				}
			}
		}
	}
}
MOTION
Frames: 11
Frame Time: 0.03333333
-1.145272 95.926758 0.541065 0.000000 0.000000 0.000000 11.742470 -49.637959 11.853851 -66.338902 27.374049 41.603119 43.627113 -19.169546 3.300637 6.155720 0.696564 -10.402436 -0.953569 -6.111302 0.978250 0.000000 0.000000 0.000000 11.742470 -49.637959 11.853851 -33.768325 0.305356 -25.532197 50.490749 2.246274 -6.583144 -23.895342 -2.614909 25.261383 0.528350 2.970032 1.471341 0.000000 0.000000 0.000000 11.742470 -49.637959 11.853851 11.000842 2.884709 -2.598271 6.100712 5.566511 -4.284674 0.000000 0.000000 0.000000 0.000000 0.000000 0.000000 -5.786920 6.328152 -3.046183 2.318696 9.363325 -0.265343 -4.146675 23.161950 -3.523375 0.000000 0.000000 0.000000 -5.786920 6.328152 -3.046183 -1.875345 -16.181703 -2.870489 0.000000 0.000000 0.000000 -10.644672 2.164713 -45.510595 -22.862383 -25.786254 -15.871717 0.000000 0.000000 0.000000 -5.786920 6.328152 -3.046183 -5.074603 24.343692 1.482629 0.000000 0.000000 0.000000 6.642397 -34.733698 57.610515 -21.031966 44.833847 19.961634 0.000000 0.000000 0.000000 
-1.362165 95.357834 1.542767 0.000000 0.000000 0.000000 23.105717 -51.248928 21.720022 -69.999330 25.951123 40.707528 44.950930 -17.475806 3.535027 4.178683 4.399922 -12.447834 -0.953569 -6.111299 0.978250 0.000000 0.000000 0.000000 23.105717 -51.248928 21.720022 -41.082778 3.881444 -24.945143 50.618460 2.290709 -6.633062 -23.355868 -1.997628 25.891427 0.528350 2.970029 1.471341 0.000000 0.000000 0.000000 23.105717 -51.248928 21.720022 1.951144 3.251740 -1.064662 3.783555 5.915585 -3.917735 0.000000 0.000000 0.000000 0.000000 0.000000 0.000000 -8.078005 6.563219 -2.613887 -5.256409 -4.314892 1.768454 -0.964760 7.189382 -0.581164 0.000000 0.000000 0.000000 -8.078005 6.563219 -2.613887 -2.338701 -9.267081 0.477313 0.000000 0.000000 0.000000 0.012348 1.464322 -49.562250 -21.267380 -30.655719 -14.789839 0.000000 0.000000 0.000000 -8.078005 6.563219 -2.613887 -5.306079 22.788503 3.827939 0.000000 0.000000 0.000000 7.662530 -36.585693 53.035510 -27.334625 45.566494 26.031931 0.000000 0.000000 0.000000 
-2.578064 94.929230 3.237858 0.000000 0.000000 0.000000 30.374568 -47.778444 29.035370 -73.000352 26.572486 37.529878 45.383137 -17.390707 3.511145 2.789903 5.914347 -12.893907 -0.953569 -6.111302 0.978250 0.000000 0.000000 0.000000 30.374568 -47.778444 29.035370 -44.152385 6.617963 -26.597648 50.553772 1.027221 -6.676771 -24.338312 -4.105388 27.220047 0.528350 2.970026 1.471341 0.000000 0.000000 0.000000 30.374568 -47.778444 29.035370 -3.494876 1.917175 0.249910 3.307907 3.506666 -3.997014 0.000000 0.000000 0.000000 0.000000 0.000000 0.000000 -8.328919 4.248530 -2.971354 -11.046993 -19.653109 9.678660 2.777025 -9.457416 3.013811 0.000000 0.000000 0.000000 -8.328919 4.248530 -2.971354 -3.066421 -7.807664 4.730872 0.000000 0.000000 0.000000 10.311697 1.423225 -52.599444 -19.446797 -36.074150 -13.613612 0.000000 0.000000 0.000000 -8.328919 4.248530 -2.971354 -5.187630 18.961584 9.196352 0.000000 0.000000 0.000000 7.063272 -38.893536 43.103917 -47.779362 56.035821 50.040510 0.000000 0.000000 0.000000 
-4.664143 95.045738 4.906029 0.000000 0.000000 0.000000 33.869914 -43.658265 33.029763 -73.825841 27.863565 34.214306 44.404938 -17.903405 3.356725 1.855299 6.546308 -13.335821 -0.953569 -6.111299 0.978250 0.000000 0.000000 0.000000 33.869914 -43.658265 33.029763 -44.460795 7.694267 -28.592505 49.915439 -0.082911 -6.610047 -25.814862 -6.534092 27.845409 0.528350 2.970027 1.471341 0.000000 0.000000 0.000000 33.869914 -43.658265 33.029763 0.428625 -0.886860 1.217996 6.128183 -1.531150 -3.628611 0.000000 0.000000 0.000000 0.000000 0.000000 0.000000 -5.294939 -0.811238 -3.075674 -16.540973 -22.287174 11.383616 4.953938 -14.605677 8.980160 0.000000 0.000000 0.000000 -5.294939 -0.811238 -3.075674 -0.591747 -9.121281 1.921977 0.000000 0.000000 0.000000 1.513778 16.251812 -51.344602 -13.857619 -28.954736 -10.616522 0.000000 0.000000 0.000000 -5.294939 -0.811238 -3.075674 -3.519764 14.337037 12.950346 0.000000 0.000000 0.000000 -3.555341 -34.934918 30.547232 -76.330192 63.075096 82.817410 0.000000 0.000000 0.000000 
-8.498978 95.046585 6.311954 0.000000 0.000000 0.000000 35.158723 -41.727705 34.439269 -72.427927 28.040795 33.366260 43.481288 -18.889902 3.263125 0.479527 7.334272 -15.000356 -0.953569 -6.111300 0.978250 0.000000 0.000000 0.000000 35.158723 -41.727705 34.439269 -43.167977 6.577657 -28.958069 49.793015 -0.531787 -6.687795 -28.598274 -7.661508 27.233800 0.528350 2.970029 1.471341 0.000000 0.000000 0.000000 35.158723 -41.727705 34.439269 8.746815 -4.021583 2.302651 10.629009 -7.985789 -2.385296 0.000000 0.000000 0.000000 0.000000 0.000000 0.000000 -0.790387 -7.362276 -2.055568 -16.206374 -14.060709 9.226305 -2.007103 -10.698959 11.861750 0.000000 0.000000 0.000000 -0.790387 -7.362276 -2.055568 4.756259 -15.894794 -1.244015 0.000000 0.000000 0.000000 -16.882209 38.628992 -37.688834 -8.098499 -17.855679 -7.600333 0.000000 0.000000 0.000000 -0.790387 -7.362276 -2.055568 -1.565904 10.918280 17.212295 0.000000 0.000000 0.000000 -15.854100 -21.529774 26.362341 -86.261594 67.025480 92.302821 0.000000 0.000000 0.000000 
-11.996796 94.942688 7.105824 0.000000 0.000000 0.000000 36.380340 -41.697523 34.622010 -71.359767 27.086927 34.754478 42.961750 -19.844512 3.254199 -0.708324 8.342546 -16.847649 -0.953569 -6.111300 0.978250 0.000000 0.000000 0.000000 36.380340 -41.697523 34.622010 -42.170247 4.900437 -27.466878 49.622158 -0.645181 -6.755228 -30.913966 -7.611723 26.220707 0.528350 2.970029 1.471341 0.000000 0.000000 0.000000 36.380340 -41.697523 34.622010 14.236074 -6.197566 3.147574 16.098162 -12.559843 -0.598835 0.000000 0.000000 0.000000 0.000000 0.000000 0.000000 4.727417 -11.847436 -0.297991 -9.105093 -7.678681 5.836517 -15.364056 -10.185841 14.338973 0.000000 0.000000 0.000000 4.727417 -11.847436 -0.297991 7.970224 -17.672027 -0.634228 0.000000 0.000000 0.000000 -32.617391 42.585434 -23.741558 -3.428588 -12.196205 -4.806349 0.000000 0.000000 0.000000 4.727417 -11.847436 -0.297991 -0.180005 10.283493 20.191141 0.000000 0.000000 0.000000 -23.570725 -4.571943 29.572267 -64.647283 68.981154 65.755638 0.000000 0.000000 0.000000 
-13.995365 94.199387 6.571098 0.000000 0.000000 0.000000 34.081937 -42.012060 33.899346 -69.189529 27.567446 35.098098 42.707827 -20.875932 3.193602 -0.735336 8.480658 -17.915171 -0.953569 -6.111300 0.978250 0.000000 0.000000 0.000000 34.081937 -42.012060 33.899346 -40.826503 4.188952 -27.967606 51.850357 -0.379549 -6.921826 -33.273448 -7.588555 25.311783 0.528350 2.970029 1.471341 0.000000 0.000000 0.000000 34.081937 -42.012060 33.899346 16.098373 -7.121492 2.813373 20.306610 -12.909525 -0.708279 0.000000 0.000000 0.000000 0.000000 0.000000 0.000000 9.038809 -11.952686 -0.910514 -8.475206 -5.132198 3.906996 -20.524701 -9.347969 13.389719 0.000000 0.000000 0.000000 9.038809 -11.952686 -0.910514 7.857614 -15.510578 0.857427 0.000000 0.000000 0.000000 -39.549237 27.778304 -22.150831 0.460921 -12.644645 -2.316810 0.000000 0.000000 0.000000 9.038809 -11.952686 -0.910514 -0.079128 10.824653 21.607805 0.000000 0.000000 0.000000 -24.893085 1.414282 30.835627 -50.605281 64.900075 49.137610 0.000000 0.000000 0.000000 
-15.471523 93.685440 5.871189 0.000000 0.000000 0.000000 28.142522 -42.069386 31.506522 -64.840741 29.510816 34.047025 41.806102 -22.314491 3.067933 -0.091996 7.582330 -18.229971 -0.953569 -6.111299 0.978250 0.000000 0.000000 0.000000 28.142522 -42.069386 31.506522 -37.194406 2.691927 -30.361615 54.025710 0.112883 -7.058639 -35.603345 -7.705033 24.476770 0.528350 2.970030 1.471341 0.000000 0.000000 0.000000 28.142522 -42.069386 31.506522 17.813424 -7.455830 2.581354 23.297507 -10.887583 -1.499097 0.000000 0.000000 0.000000 0.000000 0.000000 0.000000 11.952278 -9.911138 -2.435654 -11.145673 -3.498642 -1.030149 -10.874136 -7.113160 8.428472 0.000000 0.000000 0.000000 11.952278 -9.911138 -2.435654 7.726079 -16.727471 -0.837806 0.000000 0.000000 0.000000 -45.095484 4.212437 -22.292653 3.286381 -13.461257 -0.509128 0.000000 0.000000 0.000000 11.952278 -9.911138 -2.435654 -0.023740 11.101608 20.238984 0.000000 0.000000 0.000000 -20.403570 -1.917477 31.086288 -50.216196 63.400241 47.479674 0.000000 0.000000 0.000000 
-16.499653 93.301918 5.258793 0.000000 0.000000 0.000000 24.723919 -42.052747 30.494086 -61.912550 30.681913 33.121670 40.984612 -23.143147 2.972830 0.441492 7.260576 -18.677265 -0.953569 -6.111300 0.978250 0.000000 0.000000 0.000000 24.723919 -42.052747 30.494086 -35.383477 1.788162 -32.006263 55.575282 0.631564 -7.139135 -37.151762 -7.666933 23.736451 0.528350 2.970029 1.471341 0.000000 0.000000 0.000000 24.723919 -42.052747 30.494086 18.571351 -7.799363 2.153383 27.041667 -9.988335 -1.799563 0.000000 0.000000 0.000000 0.000000 0.000000 0.000000 15.583126 -8.911978 -3.770880 -13.934563 0.996329 -0.717982 -2.351008 -1.837006 5.623803 0.000000 0.000000 0.000000 15.583126 -8.911978 -3.770880 6.379609 -18.740050 1.186693 0.000000 0.000000 0.000000 -45.361188 -10.884704 -28.073044 3.493920 -15.590393 -0.475376 0.000000 0.000000 0.000000 15.583126 -8.911978 -3.770880 -0.208166 12.255799 21.252012 0.000000 0.000000 0.000000 -19.035155 -3.307518 29.671793 -49.092391 63.227328 45.211935 0.000000 0.000000 0.000000 
-16.858391 93.076012 4.700962 0.000000 0.000000 0.000000 23.540414 -42.970458 29.914992 -60.875946 30.850284 33.708934 40.843896 -23.514530 2.944358 0.640187 7.514523 -19.072098 -0.953569 -6.111300 0.978250 0.000000 0.000000 0.000000 23.540414 -42.970458 29.914992 -35.158481 1.506774 -32.097395 56.515782 1.253187 -7.161318 -37.702217 -7.111337 23.109656 0.528350 2.970029 1.471341 0.000000 0.000000 0.000000 23.540414 -42.970458 29.914992 18.829527 -7.717467 1.981132 30.197024 -8.814369 -1.249294 0.000000 0.000000 0.000000 0.000000 0.000000 0.000000 18.780093 -7.608275 -3.913838 -13.967091 5.511035 -0.388689 2.394459 2.571364 4.674147 0.000000 0.000000 0.000000 18.780093 -7.608275 -3.913838 3.806173 -20.816187 2.574430 0.000000 0.000000 0.000000 -43.566652 -23.379444 -34.385307 2.022603 -21.267073 -0.316746 0.000000 0.000000 0.000000 18.780093 -7.608275 -3.913838 -0.362053 12.668198 22.685087 0.000000 0.000000 0.000000 -19.496005 -4.814945 26.067688 -50.939206 65.432037 46.330788 0.000000 0.000000 0.000000 
-16.984989 93.236633 4.386848 0.000000 0.000000 0.000000 21.553335 -43.171734 28.682580 -59.426279 31.292478 33.537428 40.232816 -23.914753 2.878662 1.088910 7.218518 -19.042127 -0.953569 -6.111300 0.978250 0.000000 0.000000 0.000000 21.553335 -43.171734 28.682580 -33.978647 0.690644 -32.523431 56.601655 1.586885 -7.146129 -37.891899 -6.915783 22.743830 0.528350 2.970029 1.471341 0.000000 0.000000 0.000000 21.553335 -43.171734 28.682580 19.240677 -7.393748 2.399061 32.182482 -7.704379 -0.305653 0.000000 0.000000 0.000000 0.000000 0.000000 0.000000 20.815054 -6.765454 -3.030172 -12.465350 9.015252 0.417730 5.090612 6.232746 3.864601 0.000000 0.000000 0.000000 20.815054 -6.765454 -3.030172 3.089001 -20.768998 1.745503 0.000000 0.000000 0.000000 -47.097556 -31.481790 -38.225239 0.268732 -28.698532 0.450837 0.000000 0.000000 0.000000 20.815054 -6.765454 -3.030172 0.026216 11.366260 19.083461 0.000000 0.000000 0.000000 -17.873113 -6.888784 28.516265 -54.629803 66.932343 48.745841 0.000000 0.000000 0.000000 
